<svg xmlns="http://www.w3.org/2000/svg" height="48" width="48"><path d="M4.65 37.9v-3.1q0-1.5.7-2.475.7-.975 2.1-1.575 2.7-1.2 5.15-1.95t6.25-.75q3.75 0 6.175.75t5.175 1.95q1.3.6 2.025 1.575.725.975.725 2.475v3.1Zm32.15 0v-3.05q0-1.85-.65-3.475t-1.8-2.775q1.7.4 3.3.925 1.6.525 3 1.175 1.2.65 1.975 1.75.775 1.1.775 2.4v3.05ZM18.85 22.2q-2.6 0-4.3-1.7-1.7-1.7-1.7-4.25t1.7-4.25q1.7-1.7 4.25-1.7t4.25 1.7q1.7 1.7 1.7 4.2 0 2.6-1.7 4.3-1.7 1.7-4.2 1.7Zm14.35-6q0 2.6-1.7 4.3-1.7 1.7-4.25 1.7-.15 0-.275-.025-.125-.025-.225-.075.9-1.2 1.35-2.675.45-1.475.45-3.175 0-1.7-.5-3.1-.5-1.4-1.3-2.8.1 0 .25-.025t.25-.025q2.55 0 4.25 1.7 1.7 1.7 1.7 4.2ZM6.4 36.15h24.8V34.8q0-.8-.375-1.375T29.45 32.3q-2.5-1.25-4.9-1.875-2.4-.625-5.75-.625t-5.75.625q-2.4.625-4.85 1.875-1 .55-1.4 1.125-.4.575-.4 1.375Zm12.4-15.7q1.75 0 2.975-1.2t1.225-3q0-1.75-1.225-2.975T18.75 12.05q-1.75 0-2.95 1.225-1.2 1.225-1.2 3.025 0 1.75 1.2 2.95 1.2 1.2 3 1.2Zm0 15.7Zm0-19.9Z"/></svg>